<?xml version="1.0" encoding="UTF-8" standalone="no"?>
<svg
   xmlns:dc="http://purl.org/dc/elements/1.1/"
   xmlns:cc="http://creativecommons.org/ns#"
   xmlns:rdf="http://www.w3.org/1999/02/22-rdf-syntax-ns#"
   xmlns:svg="http://www.w3.org/2000/svg"
   xmlns="http://www.w3.org/2000/svg"
   width="372.93719mm"
   height="119.54414mm"
   viewBox="0 0 372.93719 119.54414"
   version="1.1"
   id="svg8">
  <defs
     id="defs2" />
  <metadata
     id="metadata5">
    <rdf:RDF>
      <cc:Work
         rdf:about="">
        <dc:format>image/svg+xml</dc:format>
        <dc:type
           rdf:resource="http://purl.org/dc/dcmitype/StillImage" />
        <dc:title></dc:title>
      </cc:Work>
    </rdf:RDF>
  </metadata>
  <g
     id="layer1"
     transform="translate(-8.724933,-54.533457)">
    <path
       style="fill:#040404;stroke-width:0.278092"
       d="m 296.12091,165.49757 c 0,-4.6354 -0.0758,-5.727 -0.4329,-6.23689 -0.79658,-1.13726 -1.79382,-0.82097 -4.77271,1.51378 -9.22263,7.22837 -16.68539,10.11762 -24.01068,9.29585 -5.26034,-0.59012 -8.54003,-1.9343 -11.25874,-4.61444 -1.96206,-1.93421 -3.13834,-3.87982 -4.12497,-6.82275 -1.30436,-3.89065 -1.3311,-4.36521 -1.56663,-27.79968 -0.22833,-22.71789 -0.29757,-24.07559 -1.33259,-26.1279 -0.72053,-1.42871 -2.81566,-2.39171 -6.57354,-3.02146 -1.67361,-0.28046 -3.08299,-0.63011 -3.13195,-0.77702 -0.0516,-0.15463 1.81497,-0.40853 4.43337,-0.60306 4.29406,-0.319009 12.28655,-1.428107 14.30243,-1.984723 l 0.93519,-0.258211 -0.21291,5.471084 c -0.11709,3.0091 -0.2129,13.41757 -0.2129,23.12992 0,21.66927 0.2148,24.12589 2.52279,28.85322 2.44814,5.01439 7.02934,8.04825 13.07897,8.66144 4.58973,0.46522 9.35238,-0.28036 13.10959,-2.05226 4.27454,-2.01588 7.3235,-4.54965 8.52454,-7.08414 l 0.86269,-1.82049 -0.0198,-21.27403 c -0.02,-21.58224 -0.13171,-24.28259 -1.07914,-26.11469 -0.63796,-1.23367 -2.09387,-2.47469 -3.44218,-2.9341 -1.24969,-0.42582 -5.33539,-1.04636 -9.64154,-1.46437 -1.2236,-0.11878 -2.22473,-0.34111 -2.22473,-0.49406 0,-0.16448 2.2153,-0.41432 5.42279,-0.61156 5.6647,-0.348346 13.68907,-1.237538 17.22231,-1.908436 1.13647,-0.215799 2.09984,-0.358856 2.14077,-0.317904 0.041,0.04088 -0.0416,2.94878 -0.18359,6.46183 -0.31547,7.80873 -0.0604,51.24219 0.31675,53.93045 0.32984,2.35127 1.17318,3.96221 2.47301,4.72395 0.85368,0.50029 1.44329,0.5704 4.79719,0.5704 2.42154,0 3.79212,0.10199 3.7373,0.27809 -0.0476,0.15295 -1.01751,0.56343 -2.15531,0.91217 -5.77433,1.76983 -13.43401,4.36453 -15.34764,5.199 l -2.15522,0.93981 z M 44.447856,170.0283 c -6.531692,-0.81172 -11.71314,-3.30376 -16.080144,-7.7338 -5.981101,-6.06743 -9.552437,-15.03608 -9.977964,-25.05753 -0.553779,-13.04191 4.231886,-23.58549 14.100158,-31.06489 4.641952,-3.51824 14.363896,-7.678667 20.71784,-8.866036 3.316202,-0.619704 9.510377,-0.41355 12.931268,0.430365 4.502744,1.110805 8.622952,3.717881 8.619012,5.453721 -0.0011,0.4441 -0.220004,1.12793 -0.486661,1.51961 -1.093768,1.60657 -2.458473,3.09936 -3.320485,3.6321 l -0.915551,0.56585 -2.434819,-1.96803 c -3.039551,-2.45681 -7.615125,-4.7894 -11.055663,-5.63607 -3.341654,-0.82234 -9.444787,-0.89578 -11.957945,-0.14389 -7.626729,2.28175 -13.085203,7.55433 -15.861078,15.32089 -1.43114,4.00416 -1.882728,7.01567 -1.860346,12.40622 0.02883,6.94313 1.117893,12.92994 3.245017,17.83844 2.725862,6.29014 8.917051,12.37676 14.959745,14.70707 3.886564,1.49882 5.498603,1.77306 10.501286,1.78649 4.183101,0.0112 4.834219,-0.0559 7.369432,-0.75904 3.370024,-0.93476 8.250151,-3.29152 10.706533,-5.17049 1.027188,-0.78573 1.856104,-1.24686 1.919951,-1.06808 0.178391,0.49955 -5.47546,5.7448 -8.200336,7.6077 -7.261641,4.96456 -15.318887,7.14396 -22.91925,6.1994 z m 298.978444,-0.005 c -3.09801,-0.34873 -7.3238,-1.2229 -10.003,-2.06926 -2.09617,-0.66217 -2.18526,-0.72558 -2.5011,-1.7797 -1.03628,-3.45882 -2.54832,-15.702 -2.00615,-16.24416 0.44929,-0.44928 0.69495,-0.0123 1.38034,2.45532 0.82857,2.98322 3.01743,7.40864 4.67324,9.44838 2.66657,3.28488 6.14808,5.52496 9.98431,6.42416 2.36342,0.55396 6.68316,0.61744 8.73197,0.12829 7.09125,-1.693 11.22717,-7.67993 10.31745,-14.93501 -0.82974,-6.61736 -3.73257,-9.75072 -14.76692,-15.93965 -5.68704,-3.18974 -8.88428,-5.36353 -11.54904,-7.85211 -3.95853,-3.69684 -5.90854,-7.72187 -6.16744,-12.73027 -0.47725,-9.23356 5.26889,-16.46969 15.18409,-19.121252 3.80583,-1.017785 10.5889,-1.052421 17.54934,-0.08962 2.67663,0.370246 4.94678,0.745671 5.04478,0.83428 0.098,0.08858 -0.0498,1.537662 -0.32832,3.220112 -0.27859,1.68244 -0.65432,5.06126 -0.83493,7.50847 -0.29287,3.96788 -0.53991,5.24189 -0.9391,4.84271 -0.0692,-0.0692 -0.3176,-1.31752 -0.55197,-2.77399 -1.05623,-6.56379 -2.8007,-9.68236 -6.42278,-11.481909 -4.51321,-2.242275 -10.71489,-2.36477 -14.85528,-0.293407 -8.30476,4.154686 -9.35762,16.637526 -1.96397,23.285056 2.20313,1.9808 5.17632,3.88392 10.70122,6.84978 11.95725,6.41886 16.28069,10.45831 17.53692,16.38499 0.86878,4.09873 0.31589,8.39248 -1.58003,12.26996 -0.94905,1.94097 -1.60902,2.81147 -3.68973,4.86661 -2.69774,2.66461 -5.16216,4.18273 -8.791,5.41544 -3.92817,1.33437 -9.61517,1.8876 -14.1529,1.37678 z m -193.20434,-0.37076 c -5.03661,-0.99381 -8.61978,-4.52172 -9.97105,-9.81725 -0.84244,-3.30148 -0.96417,-7.14845 -0.96894,-30.61941 -0.003,-15.15341 -0.10453,-23.91191 -0.28078,-24.24124 -0.4145,-0.77448 -1.70805,-1.07729 -5.78535,-1.35427 -2.03362,-0.13815 -3.74168,-0.29755 -3.79566,-0.35425 -0.054,-0.0567 0.0903,-0.57234 0.32063,-1.1459 0.29857,-0.74347 0.58989,-1.0455 1.01475,-1.05209 0.32779,-0.005 2.07946,-0.30842 3.89263,-0.67408 2.41384,-0.486785 3.47505,-0.83241 3.96281,-1.29063 l 0.66615,-0.625821 v -7.2544 -7.2544 l 1.49466,-1.19268 c 1.48963,-1.188659 4.94826,-4.662431 6.35157,-6.379387 0.40629,-0.497094 0.78698,-0.903797 0.84599,-0.903797 0.059,0 0.005,0.844702 -0.1205,1.877122 -0.28516,2.34988 -0.77651,13.112053 -0.78145,17.116446 -0.004,3.117401 0.33501,4.394565 1.26017,4.74957 0.59135,0.226933 13.07202,0.168057 16.8121,-0.07929 1.60598,-0.106212 2.96301,-0.164614 3.01561,-0.129789 0.0526,0.0349 -0.1351,1.167406 -0.41713,2.516846 l -0.5128,2.45351 -9.31607,-0.0806 c -9.88613,-0.0856 -9.80891,-0.0948 -10.52207,1.24427 -0.23778,0.44645 -0.32346,6.19488 -0.32328,21.69116 2.7e-4,24.65929 0.21574,28.35785 1.83936,31.57142 1.3035,2.57999 3.50853,4.48687 6.43835,5.56781 1.31043,0.48347 2.21329,0.58761 5.07046,0.58479 3.41422,-0.004 5.02687,-0.3264 8.19662,-1.64192 0.50326,-0.20886 0.49562,-0.15958 -0.0915,0.59057 -1.96904,2.51553 -6.88437,5.32004 -10.66568,6.08546 -2.49083,0.5042 -5.21223,0.51929 -7.62954,0.0423 z m -37.50258,-1.33519 c -2.75311,-0.13569 -9.54202,-0.18075 -15.086473,-0.10015 -5.544455,0.0806 -10.080826,0.0517 -10.080826,-0.0642 0,-0.11594 0.982016,-0.36532 2.18226,-0.55417 5.050072,-0.79463 7.379516,-2.22863 8.22474,-5.06315 0.859571,-2.88265 1.02117,-8.2987 0.937612,-31.42438 l -0.0819,-22.66447 -0.683143,-1.19298 c -1.041724,-1.81915 -3.600054,-3.32811 -7.172949,-4.23075 -1.716283,-0.43359 -1.523398,-1.00643 0.417137,-1.23885 3.180202,-0.38087 8.618126,-1.62974 11.749372,-2.698347 1.75894,-0.600271 3.38577,-1.155028 3.6152,-1.232788 0.36917,-0.125131 0.41714,3.497535 0.41714,31.505825 0,25.32872 0.0729,31.88823 0.36512,32.85433 0.20081,0.6639 0.86948,1.75427 1.48592,2.42303 1.32706,1.43968 2.99316,2.13569 6.77964,2.83221 1.44862,0.26647 2.59434,0.60304 2.54605,0.74793 -0.12461,0.37384 -0.0904,0.37322 -5.6149,0.10094 z m 95.52453,-0.0165 c -2.67664,-0.12787 -10.04792,-0.16915 -16.38063,-0.0917 -6.33272,0.0774 -11.40094,0.0447 -11.26272,-0.0727 0.13822,-0.11739 1.37758,-0.43667 2.75413,-0.7095 5.83643,-1.15679 7.07437,-2.44908 7.65647,-7.99274 0.4257,-4.0541 0.69238,-43.85316 0.31588,-47.14249 -0.33225,-2.90283 -0.94267,-4.32635 -2.40617,-5.61132 -1.11314,-0.97735 -3.58425,-2.28809 -5.28808,-2.80494 -0.61181,-0.18558 -1.30008,-0.40371 -1.5295,-0.48473 -0.22944,-0.081 0.83427,-0.43496 2.36377,-0.78655 4.60279,-1.05806 7.36034,-2.01725 14.46925,-5.032998 0.1941,-0.08232 0.25071,2.217133 0.17543,7.126138 -0.10188,6.64291 -0.07,7.2932 0.38223,7.79289 0.27136,0.29985 0.84121,0.54519 1.26634,0.54519 0.65502,0 1.12289,-0.45611 3.06666,-2.98949 2.97572,-3.87836 8.20509,-9.12372 10.67401,-10.706625 2.94021,-1.885078 4.97771,-2.53552 7.43733,-2.374254 1.43592,0.09418 2.43321,0.343824 3.4584,0.865814 2.53134,1.288895 2.86667,2.493795 1.49875,5.385295 -0.81036,1.71294 -3.39831,5.74711 -3.87633,6.04255 -0.13786,0.0852 -1.07025,-0.39469 -2.07198,-1.06642 -2.13104,-1.42903 -4.15587,-2.23849 -6.71357,-2.68389 -2.1477,-0.37401 -3.66499,-0.0937 -5.8111,1.07343 -2.67166,1.45297 -6.6343,6.63259 -7.9601,10.40473 -1.36491,3.8834 -1.47014,5.65943 -1.26541,21.3552 0.10474,8.0299 0.29733,16.58501 0.42796,19.01135 0.21683,4.02715 0.30584,4.54809 1.02162,5.97897 1.21718,2.43317 2.80906,3.2333 8.15354,4.09826 4.41868,0.71513 4.87712,0.81102 4.58852,0.95975 -0.15295,0.0788 -2.46807,0.0387 -5.1447,-0.0892 z M 36.661286,77.161744 H 37.9127 c 0.688274,0 1.457211,-0.05703 1.457211,0 0,0.057 -0.447843,0.755145 -0.743673,1.424631 -0.834326,1.888141 -0.980327,3.764106 -0.453118,5.822012 0.251704,0.982495 1.050122,2.896058 1.196791,3.042728 -2.088685,-0.02969 -0.433882,0 -2.708625,0 V 77.161719 Z m 68.197134,10.154531 c 0.94242,-1.202043 1.4904,-3.159489 1.5962,-4.608788 0.10651,-1.782186 0.11429,-2.363613 -0.47543,-3.82376 l -1.12077,-1.721983 h 2.57721 c -0.0506,3.384843 0.0505,6.769687 0,10.154531 -0.82946,-0.01748 -1.91541,0.03767 -2.57721,0 z M 63.726019,85.762617 c -0.203869,-0.20476 -0.242876,-0.5514 -0.103433,-0.919142 0.242307,-0.639004 0.129737,-5.878376 -0.135517,-6.307574 -0.08899,-0.143986 -0.06056,-0.259872 0.06318,-0.257538 0.553417,0.01043 0.78948,0.500812 0.785479,1.631542 l -0.0043,1.218657 1.599028,0.573336 c 0.879465,0.315334 1.599028,0.742057 1.599028,0.948277 0,0.263504 -0.08595,0.280508 -1.584299,-0.332016 -1.368847,-0.559583 -1.638804,-1.050162 -1.669338,1.533128 -0.01473,1.246449 -0.298661,2.163595 -0.549816,1.91133 z m 13.137901,-0.0098 c 0.08443,-0.136607 0.36511,-0.249543 0.623746,-0.250975 0.974022,-0.0057 3.248423,-1.593616 3.871586,-2.703529 0.341232,-0.607754 0.539373,-1.186069 0.440314,-1.28513 -0.09906,-0.09906 -2.623127,-0.01432 -4.165379,-0.04267 l -1.150446,-0.334982 2.725586,-0.06629 c 1.758931,-0.08839 3.295235,-0.08697 3.414008,0.0028 0.35064,0.266434 -1.170339,2.72243 -2.120726,3.424436 -0.958957,0.708332 -1.524373,0.960275 -2.890349,1.287919 -0.51853,0.124373 -0.836598,0.110744 -0.74834,-0.03206 z m -29.903457,-0.50815 c -0.412672,-0.771087 -0.358239,-0.901208 0.2247,-0.537155 0.663422,0.414309 1.95817,-0.425089 4.607813,-3.026222 1.340762,-1.316215 1.854057,-1.549514 1.53963,-1.090668 -0.974954,1.422781 -5.316122,5.191949 -5.928414,5.191949 -0.08572,0 -0.285398,-0.24206 -0.443729,-0.537904 z m 44.206811,0.278744 c 0,-0.163362 0.445786,-0.675005 0.586408,-0.675005 0.56148,0 2.632823,-2.08457 3.395542,-3.382071 l 1.049169,-1.784795 -0.874432,0.0051 c -0.752912,-0.130783 -2.454515,0.260858 -3.600504,-0.320231 0,-0.141899 1.188842,-0.258002 2.641872,-0.258002 1.45303,0 2.641871,0.08004 2.641871,0.177815 0,0.0978 -0.39217,0.815169 -0.871489,1.594166 l -0.776996,1.321857 1.472226,1.495756 c 0.810953,0.823914 1.566719,1.555016 1.566719,1.742932 0,0.537335 -0.135595,0.440959 -1.769156,-1.257351 l -1.538067,-1.599022 -1.057784,0.999225 c -1.391829,1.314777 -2.865379,2.312276 -2.865379,1.939668 z M 47.316758,81.369086 c -1.092454,-0.43432 -1.324709,-0.402695 -1.191876,-0.759641 0.08286,-0.222674 0.940509,0.276156 1.590552,0.442552 0.650037,0.166397 1.18189,0.422864 1.18189,0.569923 0,0.338465 -0.156019,0.313512 -1.580566,-0.252834 z m 0.323762,-2.165265 c -0.766594,-0.473043 -0.612779,-0.626238 -0.133656,-0.492836 1.354075,0.376999 1.946643,0.66517 1.946643,0.946684 0,0.404483 -0.550286,0.325311 -1.812987,-0.453848 z m 31.607155,-0.213928 c 1.064277,-0.05425 2.091211,-0.228213 2.282077,-0.386615 0.36838,-0.305727 0.738584,0.0837 0.738584,0.521459 0,0.148576 -1.111811,0.238143 -2.572348,0.207216 -2.379987,-0.05036 -2.238656,-0.250828 -0.448313,-0.34206 z M 99.465502,67.460004 c -2.938841,-1.863757 -3.306373,-5.899033 -0.753387,-8.271782 3.205915,-2.979592 8.384215,-1.089774 8.797425,3.210616 0.32651,3.397986 -1.89896,5.863904 -5.29212,5.863904 -1.16056,0 -1.76344,-0.175864 -2.751918,-0.802738 z"
       id="path50" />
  </g>
</svg>
